<?xml version="1.0" encoding="utf-8"?>
<!-- Generator: Adobe Illustrator 25.4.1, SVG Export Plug-In . SVG Version: 6.00 Build 0)  -->
<svg version="1.1" id="Layer_1" xmlns="http://www.w3.org/2000/svg" xmlns:xlink="http://www.w3.org/1999/xlink" x="0px" y="0px"
	 viewBox="0 0 36.2 36.2" style="enable-background:new 0 0 36.2 36.2;" xml:space="preserve">
<style type="text/css">
	.st0{fill:#33FF99;}
	.st1{fill:#FFFFFF;stroke:#051315;stroke-width:1.5;}
</style>
<g id="Group_17019" transform="translate(0.868)">
	<path id="Path_11864" class="st0" d="M19.5,28.7L33.2,15c1.9-2.2,2.5-5.3,1.5-8c-1-2.9-3.5-5-6.5-5.5c-1.1-0.2-2.3-0.1-3.3,0.2
		S23,2.6,22.2,3.2l-2.4,2.4L16.7,3c-0.6-0.6-1.4-1-2.3-1.3c-1.1-0.3-2.3-0.3-3.4-0.2C8.2,1.7,5.8,3.6,4.7,6.2
		c-1.2,2.7-0.9,5.9,0.7,8.4L19.5,28.7z"/>
	<path id="Path_11865" class="st1" d="M15.4,34.2l13.7-13.7c1.9-2.2,2.5-5.3,1.5-8c-1-2.9-3.5-5-6.5-5.5c-1.1-0.2-2.3-0.1-3.3,0.2
		c-1,0.3-1.9,0.9-2.7,1.5l-2.4,2.4l-3.1-2.6c-0.6-0.6-1.4-1-2.3-1.3C9.2,6.9,8.1,6.8,7,7c-2.8,0.3-5.3,2.1-6.3,4.8
		c-1.2,2.7-0.9,5.9,0.7,8.4L15.4,34.2z"/>
</g>
</svg>
