<?xml version="1.0" encoding="utf-8"?>
<!-- Generator: Adobe Illustrator 25.4.1, SVG Export Plug-In . SVG Version: 6.00 Build 0)  -->
<svg version="1.1" id="Layer_1" xmlns="http://www.w3.org/2000/svg" xmlns:xlink="http://www.w3.org/1999/xlink" x="0px" y="0px"
	 viewBox="0 0 100 100" style="enable-background:new 0 0 100 100;" xml:space="preserve">
<style type="text/css">
	.st0{fill-rule:evenodd;clip-rule:evenodd;fill:#33FF99;}
	.st1{fill:none;stroke:#040D13;stroke-width:3;stroke-linecap:round;stroke-linejoin:round;}
</style>
<g id="Group_16816">
	<path id="Path_1198" class="st0" d="M37.6,20.3H0.8v59.5h13.3L37.6,20.3z"/>
	<path id="Path_1199" class="st1" d="M7.8,79.7h90.6V20.3H7.8V79.7z"/>
	<path id="Path_1200" class="st1" d="M64.6,46.3c6.6-0.3,12.2,4.8,12.5,11.4c0.3,6.6-4.8,12.2-11.4,12.5
		c-6.6,0.3-12.2-4.8-12.5-11.4c0-0.2,0-0.4,0-0.5C53,51.9,58.1,46.5,64.6,46.3z"/>
	<path id="Path_1201" class="st1" d="M76,46.3c6.6-0.3,12.2,4.8,12.6,11.4c0.3,6.6-4.8,12.2-11.4,12.6c-6.6,0.3-12.2-4.8-12.6-11.4
		c0-0.2,0-0.4,0-0.6C64.5,51.8,69.6,46.5,76,46.3z"/>
</g>
</svg>
