<svg xmlns="http://www.w3.org/2000/svg" width="56.595" height="32.215" viewBox="0 0 56.595 32.215">
  <g id="Group_6813" data-name="Group 6813" transform="translate(1 1)">
    <path id="Path_2289" data-name="Path 2289" d="M16138.316,8718.18l.01-6.576a4.026,4.026,0,0,1,1.35-2.256,3.953,3.953,0,0,1,2.143-.945l34.4.016s.941-.129,2.219,1.227.975,2.357.975,2.357v22.506a3.567,3.567,0,0,1-1.01,2.615,4.52,4.52,0,0,1-2.168,1.494h-33.949a5.61,5.61,0,0,1-2.633-1.26,5.96,5.96,0,0,1-1.332-2.662v-6.758" transform="translate(-16124.874 -8708.402)" fill="none" stroke="#3f9" stroke-linecap="round" stroke-linejoin="round" stroke-width="2"/>
    <g id="Group_6165" data-name="Group 6165" transform="translate(20.501 6.531)" opacity="0.4">
      <path id="Path_2290" data-name="Path 2290" d="M16175.527,8714.3l-15.2,13.9-15.471-13.9" transform="translate(-16144.857 -8714.305)" fill="none" stroke="#3f9" stroke-linecap="round" stroke-linejoin="round" stroke-width="2"/>
      <path id="Path_2291" data-name="Path 2291" d="M16169.412,8727.169l10.508,9.786" transform="translate(-16149.116 -8716.535)" fill="none" stroke="#3f9" stroke-linecap="round" stroke-linejoin="round" stroke-width="2"/>
      <path id="Path_2292" data-name="Path 2292" d="M16179.918,8727.169l-10.508,9.786" transform="translate(-16169.41 -8716.939)" fill="none" stroke="#3f9" stroke-linecap="round" stroke-linejoin="round" stroke-width="2"/>
    </g>
    <g id="Group_6166" data-name="Group 6166" transform="translate(0 9.716)" opacity="0.4">
      <path id="Path_2293" data-name="Path 2293" d="M16124.056,8718.818h7.586" transform="translate(-16124.056 -8718.818)" fill="none" stroke="#3f9" stroke-linecap="round" stroke-width="2"/>
      <path id="Path_2294" data-name="Path 2294" d="M16124.056,8718.818h10.646" transform="translate(-16119.853 -8712.319)" fill="none" stroke="#3f9" stroke-linecap="round" stroke-width="2"/>
      <path id="Path_2295" data-name="Path 2295" d="M16124.056,8718.818h4.621" transform="translate(-16121.915 -8706.419)" fill="none" stroke="#3f9" stroke-linecap="round" stroke-width="2"/>
    </g>
    <g id="Group_6167" data-name="Group 6167" transform="translate(18.848 4.897)">
      <path id="Path_2290-2" data-name="Path 2290" d="M16175.527,8714.3l-15.2,13.9-15.471-13.9" transform="translate(-16144.857 -8714.305)" fill="none" stroke="#3f9" stroke-linecap="round" stroke-linejoin="round" stroke-width="2"/>
      <path id="Path_2291-2" data-name="Path 2291" d="M16169.412,8727.169l10.508,9.786" transform="translate(-16149.116 -8716.535)" fill="none" stroke="#3f9" stroke-linecap="round" stroke-linejoin="round" stroke-width="2"/>
      <path id="Path_2292-2" data-name="Path 2292" d="M16179.918,8727.169l-10.508,9.786" transform="translate(-16169.41 -8716.939)" fill="none" stroke="#3f9" stroke-linecap="round" stroke-linejoin="round" stroke-width="2"/>
    </g>
    <g id="Group_6168" data-name="Group 6168" transform="translate(1.653 8.609)">
      <path id="Path_2293-2" data-name="Path 2293" d="M16124.056,8718.818h7.586" transform="translate(-16124.056 -8718.818)" fill="none" stroke="#3f9" stroke-linecap="round" stroke-width="2"/>
      <path id="Path_2294-2" data-name="Path 2294" d="M16124.056,8718.818h10.646" transform="translate(-16119.853 -8712.319)" fill="none" stroke="#3f9" stroke-linecap="round" stroke-width="2"/>
      <path id="Path_2295-2" data-name="Path 2295" d="M16124.056,8718.818h4.621" transform="translate(-16121.915 -8706.419)" fill="none" stroke="#3f9" stroke-linecap="round" stroke-width="2"/>
    </g>
  </g>
</svg>
    