<?xml version="1.0" encoding="utf-8"?>
<!-- Generator: Adobe Illustrator 25.4.1, SVG Export Plug-In . SVG Version: 6.00 Build 0)  -->
<svg version="1.1" id="Layer_1" xmlns="http://www.w3.org/2000/svg" xmlns:xlink="http://www.w3.org/1999/xlink" x="0px" y="0px"
	 viewBox="0 0 42 42" style="enable-background:new 0 0 42 42;" xml:space="preserve">
<style type="text/css">
	.st0{fill:#33FF99;}
	.st1{fill:none;}
	.st2{fill:none;stroke:#051315;stroke-width:1.5;}
	.st3{fill:#FFFFFF;}
	.st4{fill:#051315;}
</style>
<g id="Group_16853" transform="translate(0 0)">
	<g id="Group_16852" transform="translate(0 0)">
		<path id="Rectangle_2602" class="st0" d="M15.9,0H30c1.1,0,2,0.9,2,2v31.6c0,1.1-0.9,2-2,2H15.9c-1.1,0-2-0.9-2-2V2
			C13.9,0.9,14.8,0,15.9,0z"/>
		<g id="Rectangle_2601" transform="translate(0 0.647)">
			<path class="st1" d="M12,0h17.3c1.1,0,2,0.9,2,2v37.4c0,1.1-0.9,2-2,2H12c-1.1,0-2-0.9-2-2V2C10,0.9,10.9,0,12,0z"/>
			<path class="st2" d="M12,0.7h17.3c0.7,0,1.2,0.6,1.2,1.2v37.4c0,0.7-0.6,1.2-1.2,1.2H12c-0.7,0-1.2-0.6-1.2-1.2V2
				C10.8,1.3,11.3,0.7,12,0.7z"/>
		</g>
		<g id="Path_11872" transform="translate(7.76 30.394)">
			<path class="st3" d="M13.2,6.6c-1.5,0-2.7-1.4-2.7-3.1s1.2-3.1,2.7-3.1S16,1.8,16,3.5S14.7,6.6,13.2,6.6z"/>
			<path class="st4" d="M13.2,1C12,1,11,2.1,11,3.5s1,2.6,2.2,2.6s2.2-1.1,2.2-2.6S14.5,1,13.2,1 M13.2,0c1.8,0,3.2,1.6,3.2,3.6
				S15,7.1,13.2,7.1S10,5.5,10,3.5S11.5,0,13.2,0z"/>
		</g>
	</g>
</g>
</svg>
