<?xml version="1.0" encoding="utf-8"?>
<!-- Generator: Adobe Illustrator 25.4.1, SVG Export Plug-In . SVG Version: 6.00 Build 0)  -->
<svg version="1.1" id="Layer_1" xmlns="http://www.w3.org/2000/svg" xmlns:xlink="http://www.w3.org/1999/xlink" x="0px" y="0px"
	 viewBox="0 0 100 100" style="enable-background:new 0 0 100 100;" xml:space="preserve">
<style type="text/css">
	.st0{fill:none;stroke:#040D12;stroke-width:3;stroke-linecap:round;stroke-linejoin:round;}
	.st1{fill-rule:evenodd;clip-rule:evenodd;fill:#33FF99;}
	.st2{fill:#33FF99;}
	.st3{fill:#FFFFFF;}
	.st4{fill:none;stroke:#040D12;stroke-width:3;}
	.st5{fill:none;}
</style>
<g id="Group_16730">
	<g id="Group_16726">
		<g id="Group_16724">
			<g id="Group_16722">
				<path id="Path_11851" class="st0" d="M32.4,23.5c-6.7-2.7-14.2,0.5-16.9,7.2s0.5,14.2,7.2,16.9c6.7,2.7,14.2-0.5,16.9-7.2
					c1.5-3.8,1.2-8.1-0.9-11.6l-11.1,6.7L32.4,23.5z"/>
			</g>
			<g id="Group_16723">
				<path id="Path_11852" class="st1" d="M44.4,22.3c-1.5-2.5-3.8-4.5-6.6-5.6l-5.1,12.6L44.4,22.3z"/>
			</g>
			<rect id="Rectangle_2527" x="62.8" y="14.2" class="st2" width="9.3" height="74.2"/>
			<g id="Rectangle_2528">
				<rect x="73.2" y="46.7" class="st3" width="10.4" height="41.7"/>
				<rect x="75.2" y="48.7" class="st4" width="6.4" height="37.7"/>
			</g>
			<line id="Line_709" class="st4" x1="9.6" y1="58" x2="44.4" y2="58"/>
			<line id="Line_710" class="st4" x1="9.6" y1="67.5" x2="44.4" y2="67.5"/>
			<line id="Line_711" class="st4" x1="9.6" y1="77" x2="44.4" y2="77"/>
			<line id="Line_712" class="st4" x1="9.6" y1="86.5" x2="44.4" y2="86.5"/>
			<g id="Rectangle_2529">
				<rect x="2.5" y="0.3" class="st5" width="95.1" height="99.7"/>
				<rect x="4.5" y="2.3" class="st4" width="91" height="95.7"/>
			</g>
			<line id="Line_713" class="st4" x1="55.4" y1="88.1" x2="88.6" y2="88.1"/>
		</g>
	</g>
</g>
</svg>
